<?xml version="1.0" standalone="no"?>
<svg viewBox="0 0 200 200" xmlns="http://www.w3.org/2000/svg">
  <path fill="#FF0066" d="M32.3,-52C46,-48,64.1,-47.7,74.2,-39.7C84.3,-31.7,86.5,-15.8,82.6,-2.2C78.8,11.4,69,22.8,62.6,37.2C56.1,51.6,53,69,43.1,75.6C33.2,82.1,16.6,77.9,0.6,76.8C-15.3,75.7,-30.7,77.7,-44.7,73.5C-58.8,69.3,-71.5,59,-77.4,45.7C-83.3,32.4,-82.2,16.2,-79.6,1.5C-77,-13.2,-72.7,-26.4,-64.3,-35.3C-55.9,-44.2,-43.4,-48.8,-32,-54.2C-20.6,-59.6,-10.3,-65.6,-0.5,-64.7C9.3,-63.9,18.6,-56.1,32.3,-52Z" transform="translate(100 100)" />
</svg>
