<svg viewBox="0 0 512 512" id="svg2793" style="fill-rule:evenodd;clip-rule:evenodd;stroke-linejoin:round;stroke-miterlimit:2;" version="1.1" xml:space="preserve" xmlns="http://www.w3.org/2000/svg" xmlns:cc="http://creativecommons.org/ns#" xmlns:dc="http://purl.org/dc/elements/1.1/" xmlns:rdf="http://www.w3.org/1999/02/22-rdf-syntax-ns#" xmlns:serif="http://www.serif.com/" xmlns:svg="http://www.w3.org/2000/svg" fill="#3b82f6" stroke="#3b82f6"><g id="SVGRepo_bgCarrier" stroke-width="0"></g><g id="SVGRepo_tracerCarrier" stroke-linecap="round" stroke-linejoin="round"></g><g id="SVGRepo_iconCarrier"> <defs id="defs2797"></defs> <g id="_03-Profit" style="display:inline" transform="translate(-2048,7.53847e-4)"> <g id="g2756" transform="translate(2132.93,29.6336)"> <path d="m 0,166.206 c 1.848,0 3.727,-0.344 5.548,-1.069 L 245.19,69.65 234.235,95.126 c -3.272,7.61 0.244,16.433 7.855,19.706 1.931,0.83 3.941,1.224 5.919,1.224 5.812,0 11.345,-3.4 13.787,-9.079 l 25.26,-58.739 c 0.019,-0.046 0.032,-0.092 0.05,-0.137 0.172,-0.41 0.33,-0.825 0.464,-1.249 0.073,-0.226 0.123,-0.455 0.184,-0.682 0.065,-0.245 0.139,-0.487 0.191,-0.735 0.056,-0.26 0.09,-0.521 0.132,-0.781 0.035,-0.222 0.078,-0.443 0.104,-0.668 0.029,-0.258 0.039,-0.515 0.054,-0.773 0.014,-0.233 0.036,-0.463 0.038,-0.696 0.003,-0.246 -0.012,-0.488 -0.02,-0.732 -0.009,-0.246 -0.012,-0.492 -0.032,-0.739 -0.021,-0.239 -0.06,-0.475 -0.091,-0.711 -0.033,-0.248 -0.059,-0.496 -0.106,-0.744 -0.048,-0.267 -0.119,-0.53 -0.183,-0.793 -0.051,-0.212 -0.092,-0.425 -0.153,-0.636 -0.136,-0.475 -0.294,-0.941 -0.478,-1.4 V 36.76 c -0.183,-0.459 -0.391,-0.908 -0.617,-1.348 -0.104,-0.2 -0.224,-0.387 -0.335,-0.581 -0.132,-0.229 -0.258,-0.463 -0.403,-0.686 -0.141,-0.219 -0.298,-0.423 -0.451,-0.633 -0.134,-0.186 -0.262,-0.376 -0.406,-0.557 -0.161,-0.201 -0.335,-0.389 -0.506,-0.582 -0.155,-0.174 -0.304,-0.354 -0.467,-0.521 -0.171,-0.176 -0.354,-0.337 -0.534,-0.504 -0.179,-0.167 -0.353,-0.339 -0.543,-0.498 -0.185,-0.157 -0.381,-0.297 -0.574,-0.444 -0.196,-0.15 -0.387,-0.305 -0.592,-0.447 -0.23,-0.158 -0.471,-0.297 -0.71,-0.442 -0.179,-0.11 -0.352,-0.227 -0.538,-0.33 -0.434,-0.24 -0.88,-0.46 -1.336,-0.656 L 220.461,3.272 C 212.854,0 204.028,3.516 200.755,11.126 c -3.273,7.61 0.244,16.433 7.854,19.706 l 25.468,10.952 -239.634,95.484 c -7.695,3.066 -11.448,11.791 -8.382,19.487 2.341,5.874 7.979,9.451 13.939,9.451" id="path2754" style="fill-rule:nonzero"></path> </g> <g id="g2760" transform="translate(2078,242.827)"> <path d="m 0,104.978 c 0,-9.826 7.994,-17.819 17.82,-17.819 9.826,0 17.82,7.993 17.82,17.819 V 207.489 H 0 Z M 138.79,41.869 c 0,-4.77 1.85,-9.243 5.225,-12.613 3.353,-3.358 7.826,-5.208 12.595,-5.208 4.763,0 9.232,1.85 12.602,5.226 3.365,3.359 5.218,7.832 5.218,12.595 v 165.62 h -35.64 z m 138.78,-52.88 c 0,-9.826 7.994,-17.821 17.82,-17.821 9.826,0 17.82,7.995 17.82,17.821 v 218.5 h -35.64 z m 138.79,-73.681 c 0,-9.826 7.994,-17.819 17.82,-17.819 9.826,0 17.82,7.993 17.82,17.819 v 292.181 h -35.64 z m 17.82,-47.819 c -26.368,0 -47.82,21.452 -47.82,47.819 v 292.181 h -43.15 v -218.5 c 0,-26.368 -21.452,-47.821 -47.82,-47.821 -26.368,0 -47.82,21.453 -47.82,47.821 v 218.5 H 204.43 V 41.869 c 0,-12.786 -4.98,-24.799 -14.005,-33.808 -9.02,-9.036 -21.029,-14.013 -33.815,-14.013 -12.792,0 -24.805,4.977 -33.808,13.995 -9.036,9.022 -14.012,21.035 -14.012,33.826 v 165.62 H 65.64 V 104.978 C 65.64,78.611 44.188,57.159 17.82,57.159 -8.548,57.159 -30,78.611 -30,104.978 v 117.511 c 0,8.284 6.716,15 15,15 h 482 c 8.284,0 15,-6.716 15,-15 V -84.692 c 0,-26.367 -21.452,-47.819 -47.82,-47.819" id="path2758" style="fill-rule:nonzero"></path> </g> </g> </g></svg>