<svg viewBox="0 0 512 512" id="svg2793" style="fill-rule:evenodd;clip-rule:evenodd;stroke-linejoin:round;stroke-miterlimit:2;" version="1.1" xml:space="preserve" xmlns="http://www.w3.org/2000/svg" xmlns:cc="http://creativecommons.org/ns#" xmlns:dc="http://purl.org/dc/elements/1.1/" xmlns:rdf="http://www.w3.org/1999/02/22-rdf-syntax-ns#" xmlns:serif="http://www.serif.com/" xmlns:svg="http://www.w3.org/2000/svg" fill="#3b82f6"><g id="SVGRepo_bgCarrier" stroke-width="0"></g><g id="SVGRepo_tracerCarrier" stroke-linecap="round" stroke-linejoin="round"></g><g id="SVGRepo_iconCarrier"> <defs id="defs2797"></defs> <g id="_27-Layout" style="display:inline" transform="translate(-1024,-5120)"> <g id="g2152" transform="translate(0,1024.05)"> <path d="M 1241.1,4294.09 H 1506 v 283.86 h -264.9 z m -187.1,0 h 157.1 v 283.86 H 1054 Z m 452,-30 h -452 v -138.14 h 452 z m 15,-168.14 h -482 c -8.28,0 -15,6.71 -15,15 v 482 c 0,8.28 6.72,15 15,15 h 482 c 8.28,0 15,-6.72 15,-15 v -482 c 0,-8.29 -6.72,-15 -15,-15" id="path2150" style="fill-rule:nonzero"></path> </g> <g id="g2156" transform="translate(1394.3,5413.62)"> <path d="m 0,115.83 c -31.934,0 -57.914,-25.982 -57.914,-57.92 0,-26.745 18.23,-49.303 42.914,-55.929 V 57.91 c 0,8.284 6.716,15 15,15 H 55.933 C 49.307,97.598 26.747,115.83 0,115.83 M 55.932,42.91 H 15 V 1.981 C 34.896,7.322 50.59,23.015 55.932,42.91 M 0,-30 c -48.476,0 -87.914,39.436 -87.914,87.91 0,48.48 39.438,87.92 87.914,87.92 48.476,0 87.913,-39.44 87.913,-87.92 C 87.913,9.436 48.476,-30 0,-30" id="path2154" style="fill-rule:nonzero"></path> </g> <g id="g2160" transform="translate(1302.9,5235.33)"> <path d="m 0,-32.52 c 8.965,0 16.259,7.294 16.259,16.26 C 16.259,-7.294 8.965,0 0,0 c -8.965,0 -16.259,-7.294 -16.259,-16.26 0,-8.966 7.294,-16.26 16.259,-16.26 M 0,30 C 25.507,30 46.259,9.248 46.259,-16.26 46.259,-41.768 25.507,-62.52 0,-62.52 c -25.507,0 -46.259,20.752 -46.259,46.26 C -46.259,9.248 -25.507,30 0,30" id="path2158" style="fill-rule:nonzero"></path> </g> <g id="g2164" transform="translate(1425.38,5235.33)"> <path d="m 0,-32.52 c 8.966,0 16.26,7.294 16.26,16.26 C 16.26,-7.294 8.966,0 0,0 c -8.965,0 -16.259,-7.294 -16.259,-16.26 0,-8.966 7.294,-16.26 16.259,-16.26 M 0,30 C 25.508,30 46.26,9.248 46.26,-16.26 46.26,-41.768 25.508,-62.52 0,-62.52 c -25.507,0 -46.259,20.752 -46.259,46.26 C -46.259,9.248 -25.507,30 0,30" id="path2162" style="fill-rule:nonzero"></path> </g> <g id="g2168" transform="translate(1103.34,5400.96)"> <path d="m 0,30 h 58.411 c 8.284,0 15,-6.716 15,-15 0,-8.284 -6.716,-15 -15,-15 H 0 c -8.284,0 -15,6.716 -15,15 0,8.284 6.716,15 15,15" id="path2166" style="fill-rule:nonzero"></path> </g> <g id="g2172" transform="translate(1161.75,5486.53)"> <path d="m 0,-30 h -58.411 c -8.284,0 -15,6.716 -15,15 0,8.284 6.716,15 15,15 H 0 C 8.284,0 15,-6.716 15,-15 15,-23.284 8.284,-30 0,-30" id="path2170" style="fill-rule:nonzero"></path> </g> <g id="g2176" transform="translate(1161.75,5542.11)"> <path d="m 0,-30 h -58.411 c -8.284,0 -15,6.716 -15,15 0,8.284 6.716,15 15,15 H 0 C 8.284,0 15,-6.716 15,-15 15,-23.284 8.284,-30 0,-30" id="path2174" style="fill-rule:nonzero"></path> </g> </g> </g></svg>