<svg viewBox="0 0 512 512" id="svg2793" style="fill-rule:evenodd;clip-rule:evenodd;stroke-linejoin:round;stroke-miterlimit:2;" version="1.1" xml:space="preserve" xmlns="http://www.w3.org/2000/svg" xmlns:cc="http://creativecommons.org/ns#" xmlns:dc="http://purl.org/dc/elements/1.1/" xmlns:rdf="http://www.w3.org/1999/02/22-rdf-syntax-ns#" xmlns:serif="http://www.serif.com/" xmlns:svg="http://www.w3.org/2000/svg" fill="#3b82f6" stroke="#3b82f6"><g id="SVGRepo_bgCarrier" stroke-width="0"></g><g id="SVGRepo_tracerCarrier" stroke-linecap="round" stroke-linejoin="round"></g><g id="SVGRepo_iconCarrier"> <defs id="defs2797"></defs> <g id="_29-Ratio" style="display:inline" transform="translate(-3072,-5120)"> <g id="g2138" transform="translate(3124.68,5312.57)"> <path d="m 0,-134.326 c -3.079,-3.079 -4.846,-7.341 -4.846,-11.692 0,-4.416 1.725,-8.576 4.838,-11.695 3.137,-3.131 7.296,-4.855 11.712,-4.855 h 80.88 c 4.417,0 8.576,1.724 11.695,4.838 3.124,3.13 4.845,7.289 4.845,11.712 0,4.358 -1.763,8.62 -4.836,11.693 -3.126,3.125 -7.282,4.847 -11.704,4.847 h -80.88 c -4.421,0 -8.577,-1.722 -11.704,-4.848 M 339.631,28.242 H 235.324 V -76.056 c 50.479,13.716 90.589,53.823 104.307,104.298 M 125.5,-113.111 c 5.04,-5.039 8.818,-11.213 11.104,-17.907 h 104.01 v 25.309 c -5.941,-1.502 -11.988,-2.708 -18.127,-3.602 -4.318,-0.632 -8.68,0.648 -11.975,3.497 -3.294,2.849 -5.188,6.99 -5.188,11.345 V 43.242 c 0,8.285 6.716,15 15,15 h 137.72 c 4.355,0 8.496,-1.893 11.346,-5.188 2.849,-3.294 4.126,-7.665 3.497,-11.976 -5.553,-38.093 -22.953,-72.695 -50.323,-100.064 -15.278,-15.279 -32.813,-27.447 -51.95,-36.187 v -50.845 c 0,-8.285 -6.716,-15 -15,-15 h -118.96 c -2.262,-6.669 -6.033,-12.788 -11.162,-17.925 -8.801,-8.786 -20.487,-13.625 -32.908,-13.625 h -80.88 c -12.42,0 -24.106,4.839 -32.925,13.642 -8.786,8.801 -13.625,20.488 -13.625,32.908 0,12.25 4.97,24.244 13.634,32.906 8.792,8.792 20.482,13.634 32.916,13.634 h 80.88 c 12.436,0 24.125,-4.842 32.916,-13.633" id="path2136" style="fill-rule:nonzero"></path> </g> <g id="g2142" transform="translate(3531.31,5271.86)"> <path d="m 0,325.306 c -3.069,3.074 -7.328,4.838 -11.685,4.838 h -80.889 c -4.421,0 -8.571,-1.718 -11.703,-4.856 -3.119,-3.114 -4.837,-7.263 -4.837,-11.684 0,-4.422 1.72,-8.578 4.845,-11.703 3.126,-3.125 7.279,-4.847 11.695,-4.847 h 80.889 c 4.351,0 8.614,1.767 11.694,4.847 3.125,3.126 4.846,7.282 4.846,11.703 0,4.42 -1.717,8.569 -4.855,11.702 M -349.305,120.544 c 0,-56.384 38.017,-105.766 90.87,-121.312 v 43.715 c -12.818,5.907 -24.182,15.013 -32.708,26.346 -11.195,14.882 -17.112,32.604 -17.112,51.251 0,47.068 38.288,85.36 85.351,85.36 18.649,0 36.373,-5.919 51.257,-17.117 11.33,-8.524 20.436,-19.887 26.345,-32.703 h 43.72 c -15.546,52.849 -64.932,90.86 -121.322,90.86 -69.698,0 -126.401,-56.702 -126.401,-126.4 M 21.222,280.688 C 12.558,272.024 0.563,267.054 -11.685,267.054 h -80.889 c -12.429,0 -24.115,4.842 -32.907,13.634 -5.127,5.127 -8.9,11.244 -11.164,17.916 h -81.969 v -21.726 c 36.246,-0.994 71.056,-14.55 98.445,-38.436 28.186,-24.581 46.663,-58.389 52.027,-95.194 0.629,-4.31 -0.647,-8.681 -3.497,-11.975 -2.849,-3.295 -6.99,-5.189 -11.345,-5.189 h -72.611 c -6.596,0 -12.42,4.311 -14.345,10.619 -7.048,23.082 -28.828,39.201 -52.964,39.201 -30.521,0 -55.351,-24.834 -55.351,-55.36 0,-24.14 16.118,-45.916 39.195,-52.953 6.313,-1.925 10.625,-7.749 10.625,-14.347 v -72.61 c 0,-4.355 -1.893,-8.496 -5.188,-11.346 -3.294,-2.848 -7.657,-4.126 -11.976,-3.497 -36.804,5.365 -70.614,23.841 -95.198,52.026 -24.832,28.467 -38.508,64.95 -38.508,102.727 0,77.484 56.642,141.975 130.691,154.275 v 38.785 c 0,8.284 6.716,15 15,15 h 96.968 c 2.263,6.673 6.035,12.784 11.156,17.897 8.783,8.798 20.472,13.643 32.916,13.643 h 80.889 c 12.263,0 24.26,-4.973 32.898,-13.625 8.798,-8.783 13.642,-20.473 13.642,-32.915 0,-12.435 -4.841,-24.124 -13.633,-32.916" id="path2140" style="fill-rule:nonzero"></path> </g> </g> </g></svg>